<?xml version="1.0" standalone="no"?>
<!DOCTYPE svg PUBLIC "-//W3C//DTD SVG 20010904//EN"
 "http://www.w3.org/TR/2001/REC-SVG-20010904/DTD/svg10.dtd">
<svg version="1.0" xmlns="http://www.w3.org/2000/svg"
 width="300.000000pt" height="300.000000pt" viewBox="0 0 300.000000 300.000000"
 preserveAspectRatio="xMidYMid meet">
<metadata>
Created by potrace 1.10, written by Peter Selinger 2001-2011
</metadata>
<g transform="translate(0.000000,300.000000) scale(0.100000,-0.100000)"
fill="#000000" stroke="none">
<path d="M1315 2494 c-250 -47 -467 -179 -615 -375 -59 -78 -150 -246 -150
-276 0 -8 12 -13 33 -13 31 0 34 4 84 103 137 268 390 454 678 498 114 18 314
6 418 -25 260 -77 467 -255 583 -501 35 -73 36 -74 67 -68 18 3 33 7 35 8 1 1
-11 33 -28 71 -95 212 -285 403 -498 501 -172 80 -424 112 -607 77z"/>
<path d="M1452 2329 c-24 -7 -32 -14 -28 -25 3 -9 6 -47 6 -85 l0 -69 35 0 35
0 -1 68 c0 71 -17 62 -18 -10 -1 -27 -5 -38 -16 -38 -12 0 -15 14 -15 70 l0
70 53 0 54 0 -5 -74 c-3 -45 0 -76 6 -80 7 -4 12 23 14 79 2 69 0 86 -12 89
-42 12 -78 13 -108 5z"/>
<path d="M1478 2133 c-51 -3 -68 -8 -68 -18 0 -8 -6 -15 -14 -15 -9 0 -16 -17
-20 -52 -9 -74 -9 -178 -1 -210 6 -23 4 -26 -14 -21 -18 5 -21 1 -21 -25 0
-66 26 -85 33 -24 l4 37 1 -43 2 -43 58 8 c31 4 81 7 111 6 l53 -1 -4 64 c-2
35 -2 64 1 64 2 0 55 -31 117 -70 61 -38 123 -70 137 -70 13 0 83 33 156 74
72 41 144 76 161 78 23 2 38 -6 70 -37 22 -21 40 -34 40 -29 0 6 -18 25 -40
43 -22 18 -40 41 -40 52 0 11 -7 22 -16 26 -22 8 -49 -10 -49 -32 0 -11 -40
-39 -124 -86 -68 -38 -127 -69 -132 -69 -5 0 -9 38 -9 84 0 111 2 113 123 92
52 -9 103 -16 113 -15 33 1 -27 16 -120 29 -67 9 -89 16 -97 31 -13 24 -31 24
-54 -1 -10 -11 -26 -20 -35 -20 -14 0 -135 -29 -192 -46 -16 -5 -18 4 -18 86
0 69 -3 91 -12 87 -7 -2 -12 -15 -11 -28 7 -81 6 -260 -2 -268 -6 -5 -22 -13
-37 -16 l-28 -7 0 159 0 159 -42 -5 c-38 -5 -39 -6 -13 -9 16 -2 33 -9 37 -15
4 -7 8 -67 8 -133 0 -131 -1 -133 -58 -152 l-32 -11 2 167 3 167 93 9 c87 8
93 10 90 30 -3 23 -9 24 -110 19z m382 -304 c0 -111 -6 -113 -145 -25 -62 39
-112 73 -110 74 2 2 52 16 112 32 138 35 143 32 143 -81z"/>
<path d="M1105 2111 c-3 -6 10 -32 29 -59 23 -31 33 -55 30 -68 -7 -28 22 -52
44 -37 13 8 30 4 76 -19 32 -16 60 -27 63 -24 3 3 -21 18 -53 33 -55 26 -74
40 -73 53 1 8 88 70 99 70 6 0 10 7 10 15 0 19 -19 20 -26 1 -9 -24 -90 -75
-110 -70 -21 6 -70 72 -66 91 3 15 -15 26 -23 14z"/>
<path d="M1750 2075 c0 -8 4 -15 9 -15 6 0 24 -20 42 -45 18 -25 34 -43 37
-40 2 2 -10 23 -27 47 -17 23 -31 48 -31 55 0 7 -7 13 -15 13 -8 0 -15 -7 -15
-15z"/>
<path d="M2208 1979 l-17 -40 30 32 c31 33 37 49 17 49 -7 0 -21 -18 -30 -41z"/>
<path d="M930 1974 c0 -7 4 -14 8 -16 5 -1 24 -31 42 -66 18 -34 35 -60 38
-58 2 3 -10 31 -27 62 -17 32 -31 61 -31 66 0 4 44 9 98 9 117 2 103 7 -30 11
-72 3 -98 1 -98 -8z"/>
<path d="M1181 1870 c1 -33 -1 -63 -4 -67 -13 -13 -7 -23 14 -23 15 0 19 4 15
16 -3 9 -6 42 -6 75 0 35 -4 59 -11 59 -6 0 -9 -22 -8 -60z"/>
<path d="M510 1546 l0 -256 43 0 42 0 -2 177 c-2 116 1 171 7 158 5 -11 36
-90 68 -175 81 -213 80 -213 171 17 l70 178 1 -177 0 -178 40 0 40 0 0 256 0
255 -51 -3 -50 -3 -60 -155 c-33 -85 -62 -165 -66 -177 -6 -24 -23 -32 -23
-10 0 7 -29 87 -64 177 l-64 165 -51 3 -51 3 0 -255z m98 152 c21 -57 21 -68
-2 -49 -11 10 -17 8 -28 -8 -21 -29 -28 -16 -28 51 0 51 2 58 19 58 14 0 25
-14 39 -52z m342 -25 c-1 -78 -1 -78 -18 -50 -9 15 -25 27 -35 27 -16 0 -18 5
-12 28 9 38 33 72 50 72 12 0 15 -16 15 -77z m-180 -263 c0 -16 -12 -40 -20
-40 -4 0 -12 13 -18 28 -9 27 -8 29 14 24 13 -2 24 -8 24 -12z"/>
<path d="M2402 1788 c-16 -16 -15 -63 2 -77 21 -18 66 -9 82 14 11 16 11 25 1
45 -14 28 -64 39 -85 18z"/>
<path d="M2105 1668 c-16 -51 -49 -157 -75 -235 l-47 -143 42 0 42 0 15 53 15
52 80 3 80 3 13 -56 13 -55 45 0 c31 0 43 4 39 13 -2 6 -37 112 -78 235 l-74
222 -41 0 -41 0 -28 -92z m108 -125 l25 -83 -60 0 c-53 0 -60 2 -55 18 58 212
48 205 90 65z m-108 -94 c4 -6 -1 -16 -11 -24 -23 -16 -28 -13 -19 14 7 23 20
27 30 10z m177 -14 c4 -21 3 -23 -13 -14 -20 10 -24 21 -12 32 12 13 21 7 25
-18z"/>
<path d="M1050 1530 c0 -118 3 -151 18 -179 48 -95 226 -95 274 0 15 28 18 61
18 179 l0 145 -40 0 -40 0 0 -142 c0 -130 -2 -145 -20 -163 -13 -13 -33 -20
-59 -20 -64 0 -71 19 -71 185 l0 140 -40 0 -40 0 0 -145z"/>
<path d="M1464 1666 c-99 -43 -79 -178 29 -207 23 -6 52 -17 65 -25 24 -16 29
-53 10 -72 -17 -17 -83 -15 -117 3 -26 13 -30 13 -50 -9 -21 -22 -21 -23 -3
-40 41 -37 127 -46 191 -20 49 19 71 51 71 103 0 54 -36 95 -103 117 -67 21
-79 32 -75 63 3 22 9 26 41 29 23 2 48 -3 62 -12 21 -14 24 -13 46 10 24 25
24 26 4 40 -45 33 -120 42 -171 20z"/>
<path d="M1780 1669 c-67 -27 -97 -101 -87 -220 9 -111 42 -153 128 -165 45
-6 123 9 134 26 3 4 0 20 -7 35 -8 18 -16 24 -27 19 -26 -11 -79 -17 -104 -10
-25 6 -47 43 -47 79 0 22 2 22 110 19 l110 -4 0 61 c0 87 -19 127 -72 151 -47
21 -99 24 -138 9z m113 -77 c9 -10 20 -33 23 -50 l7 -32 -78 0 -78 0 6 37 c4
21 14 44 24 50 25 19 77 16 96 -5z"/>
<path d="M2400 1475 l0 -185 40 0 40 0 0 185 0 185 -40 0 -40 0 0 -185z"/>
<path d="M544 1223 c16 -61 96 -212 155 -290 209 -277 560 -430 903 -393 131
14 294 68 407 135 144 86 286 233 366 377 29 53 85 182 85 195 0 2 -18 3 -40
3 -22 0 -40 -5 -40 -11 0 -19 -77 -176 -114 -232 -107 -160 -310 -309 -501
-365 -100 -30 -236 -46 -324 -38 -364 32 -675 255 -804 576 -25 62 -27 65 -63
68 -36 3 -36 3 -30 -25z"/>
<path d="M1405 1242 c-1 -1 0 -23 2 -47 l5 -43 -41 -13 c-29 -8 -48 -9 -64 -2
-30 14 -47 6 -47 -23 0 -18 5 -24 21 -24 25 0 149 -109 149 -131 0 -12 9 -15
38 -13 20 1 54 3 75 3 34 1 37 3 37 31 l0 30 -75 0 c-48 0 -75 -4 -75 -11 0
-6 -26 13 -57 42 -32 28 -58 57 -58 62 0 5 20 16 45 23 53 16 60 10 60 -53 l0
-43 80 0 80 0 0 44 c0 23 3 70 6 104 l7 61 -93 3 c-50 2 -93 2 -95 0z m142
-114 c-3 -33 -9 -64 -14 -69 -5 -5 -24 -6 -41 -3 -27 5 -34 13 -43 46 -5 22
-9 52 -7 66 2 22 8 27 30 27 15 1 30 4 34 8 4 3 16 1 27 -4 17 -10 19 -18 14
-71z"/>
<path d="M1682 1233 c1 -10 -4 -48 -11 -85 -13 -69 -18 -73 -63 -70 -13 1 -12
-4 8 -25 13 -14 24 -29 24 -33 0 -3 -14 -46 -30 -95 -17 -49 -26 -85 -21 -80
5 6 21 46 36 91 36 108 44 112 146 72 98 -38 108 -55 83 -132 -9 -28 -23 -58
-31 -68 -10 -11 -11 -18 -3 -23 13 -8 24 1 25 18 2 37 38 127 51 127 8 0 19
11 26 24 6 14 35 41 66 61 30 20 74 55 98 77 24 22 48 37 54 33 6 -4 20 1 30
10 15 13 31 16 65 13 32 -4 45 -2 45 7 0 9 -13 11 -47 7 -27 -2 -50 -6 -52 -8
-2 -2 -10 4 -18 12 -14 13 -17 13 -32 -1 -21 -18 -111 -21 -128 -4 -16 16 -43
4 -43 -18 0 -10 -11 -40 -25 -68 -13 -27 -25 -56 -25 -62 0 -7 -9 -13 -19 -13
-11 0 -22 -4 -25 -9 -8 -13 -165 54 -181 77 -12 16 -12 30 -1 88 9 50 17 68
27 66 8 -2 63 -19 123 -38 60 -19 111 -32 113 -30 3 3 -48 21 -113 42 -66 20
-120 40 -122 45 -6 16 -31 9 -30 -8z m408 -124 c-19 -17 -65 -53 -102 -80 -75
-55 -82 -50 -47 32 26 59 55 77 129 78 l55 0 -35 -30z"/>
<path d="M1053 1224 c-6 -16 -133 -84 -158 -84 -8 0 -15 -7 -15 -15 0 -16 26
-21 32 -7 2 5 33 24 69 43 79 42 105 42 195 0 37 -17 69 -29 71 -27 3 3 -28
20 -69 39 -40 18 -79 41 -87 50 -17 21 -30 22 -38 1z"/>
<path d="M1450 896 c0 -17 -4 -46 -9 -64 -8 -27 -5 -43 22 -102 18 -38 34 -69
37 -69 3 -1 19 32 35 72 17 39 31 74 32 77 2 3 -13 15 -31 28 -34 23 -35 23
-62 6 -27 -18 -27 -18 -15 4 6 12 18 22 26 22 10 0 15 10 15 28 0 22 -5 27
-25 28 -22 2 -25 -2 -25 -30z m70 -100 c0 -14 -4 -28 -10 -31 -5 -3 -10 1 -10
9 0 9 -5 16 -11 16 -8 0 -8 5 1 15 18 22 30 18 30 -9z"/>
</g>
</svg>
